<svg xmlns="http://www.w3.org/2000/svg" width="49" height="49" viewBox="0 0 49 49"><g fill="#323232"><path d="M24.5 0C10.97 0 0 10.97 0 24.5S10.97 49 24.5 49 49 38.03 49 24.5 38.03 0 24.5 0zm0 47C12.093 47 2 36.906 2 24.5 2 12.093 12.093 2 24.5 2 36.906 2 47 12.093 47 24.5 47 36.906 36.906 47 24.5 47z"/><path d="M34.807 26.756c-.45-9.493-9.197-18.693-9.586-19.097-.014-.016-.032-.024-.047-.038-.037-.034-.076-.062-.118-.09-.042-.03-.084-.055-.13-.077-.018-.01-.032-.022-.05-.03-.028-.01-.057-.01-.084-.02-.047-.015-.094-.027-.144-.034-.05-.007-.1-.01-.152-.01-.045 0-.09.003-.134.01-.055.007-.105.02-.158.037-.025.008-.052.008-.076.018-.018.007-.03.02-.05.03-.046.02-.09.048-.132.078-.042.028-.08.057-.118.09-.015.014-.033.022-.046.037-.39.404-9.14 9.608-9.587 19.105-.008.067-.017.133-.01.202-.014.363-.018.727-.004 1.09.368 10.257 9.977 12.82 10.074 12.846.082.02.165.03.247.03s.166-.01.248-.03c.097-.024 9.706-2.59 10.074-12.845.013-.363.01-.727-.003-1.09.005-.072-.005-.14-.013-.212zM16.783 23.25c2.22 2.058 5.368 3.52 6.717 4.09v4.553c-2.448-1.196-6.22-3.34-7.302-5.228.07-1.143.28-2.287.585-3.415zm2.024-5.096c1.513 1.688 3.602 2.646 4.693 3.06v3.94c-1.654-.76-4.424-2.217-6.016-4.044.388-1.016.834-2.008 1.323-2.956zm12.71 2.954c-1.59 1.824-4.36 3.283-6.017 4.044v-3.94c1.092-.412 3.183-1.37 4.695-3.06.49.948.935 1.94 1.323 2.956zm-6.017-2.06v-8.01c1.033 1.28 2.387 3.1 3.65 5.23-.952 1.374-2.535 2.276-3.65 2.78zm0 12.845V27.34c1.35-.568 4.5-2.033 6.72-4.09.304 1.127.514 2.272.583 3.416-1.083 1.883-4.855 4.03-7.303 5.227zm-2-12.843c-1.113-.5-2.694-1.4-3.65-2.78 1.265-2.128 2.618-3.95 3.65-5.228v8.008zm-7.117 10.775c2.328 1.983 5.69 3.63 7.117 4.28v4.404c-2.092-.905-6.162-3.332-7.117-8.685zM25.5 38.52v-4.414c1.428-.653 4.792-2.3 7.12-4.284-.95 5.41-5.02 7.813-7.12 8.7z"/></g></svg>