<svg xmlns="http://www.w3.org/2000/svg" width="49" height="49" viewBox="0 0 49 49"><g fill="#323232"><path d="M24.5 0C10.97 0 0 10.97 0 24.5S10.97 49 24.5 49 49 38.03 49 24.5 38.03 0 24.5 0zm0 47C12.093 47 2 36.906 2 24.5 2 12.093 12.093 2 24.5 2 36.906 2 47 12.093 47 24.5 47 36.906 36.906 47 24.5 47z"/><path d="M28.938 13.125c0-2.774-2.257-5.03-5.03-5.03s-5.032 2.256-5.032 5.03v14.64c-1.28 1.322-2 3.067-2 4.923 0 3.93 3.196 7.125 7.125 7.125s7.126-3.196 7.126-7.125c0-1.942-.802-3.79-2.188-5.126V13.125zm.187 19.563c0 2.83-2.295 5.125-5.125 5.125s-5.125-2.295-5.125-5.125c0-1.647.792-3.098 2-4.035V13.125c0-1.674 1.357-3.03 3.03-3.03 1.675 0 3.032 1.356 3.032 3.03v15.372c1.32.928 2.188 2.455 2.188 4.19z"/><path d="M25 29.56V13.187c0-.552-.447-1-1-1-.552 0-1 .448-1 1v16.37c-1.163.414-2 1.513-2 2.817 0 1.657 1.343 3 3 3s3-1.343 3-3c0-1.305-.837-2.403-2-2.816zM31 12h6v2h-6zM31 16h6v2h-6zM31 20h6v2h-6zM31 24h6v2h-6z"/></g></svg>