<svg xmlns="http://www.w3.org/2000/svg" width="49" height="49" viewBox="0 0 49 49"><g fill="#323232"><path d="M24.5 0C10.97 0 0 10.97 0 24.5S10.97 49 24.5 49 49 38.03 49 24.5 38.03 0 24.5 0zm0 47C12.093 47 2 36.906 2 24.5 2 12.093 12.093 2 24.5 2 36.906 2 47 12.093 47 24.5 47 36.906 36.906 47 24.5 47z"/><path d="M24.5 7.625c-4.355 0-7.94 3.278-8.436 7.5H16v16.917h17V15.125h-.063c-.497-4.222-4.082-7.5-8.437-7.5zM31 30.042H18v-9.257c.275.337.705.63 1.542.63 1.292 0 2.125-.712 2.125-1.624v-.874c0-.472.382-.854.854-.854.473 0 .855.382.855.854 0 .01-.005.017-.005.025s.005.01.005.018v3.292s-.03 1.833 2.125 1.833c2.11 0 2.125-1.75 2.125-1.75v-2.25-.005c0-.742.602-1.344 1.344-1.344s1.343.602 1.343 1.344c0 .03.02.088.02.088s.035.61.668.894v8.982zM23 40.125c0 .828.67 1.5 1.5 1.5.828 0 1.5-.672 1.5-1.5V33h-3v7.125z"/></g></svg>